<svg xmlns="http://www.w3.org/2000/svg" width="880" height="190" viewBox="0 0 880 190" role="img" aria-label="kyuar — QR codes that live inside Telegram: inline in any chat, from the bot, or in a Mini App editor." shape-rendering="crispEdges"><path d="M9,1 H871 V9 H879 V181 H871 V189 H9 V181 H1 V9 H9 Z" fill="#ffffff" stroke="#c9c9c9" stroke-width="2"/><g fill="#b8400a"><rect x="28" y="28" width="8" height="8"/><rect x="36" y="28" width="8" height="8"/><rect x="44" y="28" width="8" height="8"/><rect x="52" y="28" width="8" height="8"/><rect x="60" y="28" width="8" height="8"/><rect x="68" y="28" width="8" height="8"/><rect x="76" y="28" width="8" height="8"/><rect x="28" y="36" width="8" height="8"/><rect x="76" y="36" width="8" height="8"/><rect x="28" y="44" width="8" height="8"/><rect x="44" y="44" width="8" height="8"/><rect x="52" y="44" width="8" height="8"/><rect x="60" y="44" width="8" height="8"/><rect x="76" y="44" width="8" height="8"/><rect x="28" y="52" width="8" height="8"/><rect x="44" y="52" width="8" height="8"/><rect x="52" y="52" width="8" height="8"/><rect x="60" y="52" width="8" height="8"/><rect x="76" y="52" width="8" height="8"/><rect x="28" y="60" width="8" height="8"/><rect x="44" y="60" width="8" height="8"/><rect x="52" y="60" width="8" height="8"/><rect x="60" y="60" width="8" height="8"/><rect x="76" y="60" width="8" height="8"/><rect x="28" y="68" width="8" height="8"/><rect x="76" y="68" width="8" height="8"/><rect x="28" y="76" width="8" height="8"/><rect x="36" y="76" width="8" height="8"/><rect x="44" y="76" width="8" height="8"/><rect x="52" y="76" width="8" height="8"/><rect x="60" y="76" width="8" height="8"/><rect x="68" y="76" width="8" height="8"/><rect x="76" y="76" width="8" height="8"/></g><text x="104" y="65.8" fill="#181818" font-family="ui-monospace, SFMono-Regular, Menlo, Consolas, monospace" font-size="28" font-weight="700">kyuar</text><text x="852" y="65.8" fill="#666666" font-family="ui-monospace, SFMono-Regular, Menlo, Consolas, monospace" font-size="13" text-anchor="end">2026-09</text><text x="28" y="118" fill="#666666" font-family="ui-monospace, SFMono-Regular, Menlo, Consolas, monospace" font-size="14">QR codes that live inside Telegram: inline in any chat, from the bot, or in a Mini App editor.</text><rect x="28" y="140" width="66" height="22" fill="none" stroke="#c9c9c9" stroke-width="1.5"/><text x="36" y="155" fill="#181818" font-family="ui-monospace, SFMono-Regular, Menlo, Consolas, monospace" font-size="12">Next.js</text><rect x="102.4" y="140" width="59" height="22" fill="none" stroke="#c9c9c9" stroke-width="1.5"/><text x="110.4" y="155" fill="#181818" font-family="ui-monospace, SFMono-Regular, Menlo, Consolas, monospace" font-size="12">grammY</text></svg>
